# xmcd
#
# Track frame offsets: 
#        150
#        61120
#        85827
#        115744
#        146392
#        183729
#        226061
#        275715
#        291372
#        311593
#
# Disc length: 4453 seconds
#
# Revision: 0
# Processed by: cddbd v1.5.2PL0 Copyright (c) Steve Scherf et al.
# Submitted via: ExactAudioCopyFreeDBPlugin 1.0
#
DISCID=8c11630a
DTITLE=伊奈かっぺい - 津軽から金曜日への手紙
DYEAR=2014
DGENRE=Country
TTITLE0=もうすぐ楽しい金曜日
TTITLE1=もういくつ寝ると金曜日
TTITLE2=あすは楽しい金曜日
TTITLE3=きょうは楽しい金曜日
TTITLE4=きょうも楽しい金曜日
TTITLE5=あすはどうやら土曜日
TTITLE6=きょうはほんとの土曜日
TTITLE7=今度の１３日金曜日はいつ
TTITLE8=もういくつ寝ると次の金曜日
TTITLE9=ずっと起きていようか金曜日
EXTD=
EXTT0=
EXTT1=
EXTT2=
EXTT3=
EXTT4=
EXTT5=
EXTT6=
EXTT7=
EXTT8=
EXTT9=
PLAYORDER=
